<?xml version="1.0" standalone="no"?>
<!DOCTYPE svg PUBLIC "-//W3C//DTD SVG 20010904//EN"
 "http://www.w3.org/TR/2001/REC-SVG-20010904/DTD/svg10.dtd">
<svg version="1.0" xmlns="http://www.w3.org/2000/svg"
 width="482.000000pt" height="169.000000pt" viewBox="0 0 482.000000 169.000000"
 preserveAspectRatio="xMidYMid meet">

<g transform="translate(0.000000,169.000000) scale(0.100000,-0.100000)"
fill="#000000" stroke="none">
<path d="M1035 1474 c-149 -37 -235 -80 -312 -153 -69 -66 -92 -96 -136 -181
-57 -108 -71 -170 -71 -305 0 -134 13 -194 64 -296 166 -331 554 -446 860
-254 71 44 181 164 216 236 52 105 67 166 72 282 5 129 -14 228 -65 331 -42
83 -42 83 -123 166 -112 114 -235 169 -395 175 -49 2 -99 2 -110 -1z m203 -34
c91 -15 190 -69 278 -153 42 -40 82 -85 90 -102 8 -16 22 -43 31 -60 46 -84
63 -157 63 -280 0 -148 -9 -186 -66 -302 -38 -76 -59 -105 -118 -160 -125
-116 -238 -163 -394 -163 -163 0 -288 54 -409 177 -40 41 -73 79 -73 85 0 6
-6 19 -14 27 -8 9 -29 52 -47 96 -33 78 -34 84 -34 225 0 142 1 147 34 229 40
101 75 155 146 224 72 70 99 89 170 121 101 44 215 56 343 36z"/>
<path d="M1096 1348 c-40 -133 -50 -229 -37 -353 7 -58 17 -118 23 -133 19
-47 15 -210 -6 -272 -24 -69 -23 -168 3 -268 11 -41 22 -76 25 -80 11 -10 23
11 44 78 34 106 37 176 13 264 -27 99 -26 159 4 281 30 120 41 255 27 350 -12
85 -49 215 -62 215 -5 0 -20 -37 -34 -82z"/>
<path d="M495 1218 c-124 -100 -270 -254 -317 -336 -17 -29 -17 -30 14 -78 72
-111 289 -344 321 -344 5 0 5 6 -2 14 -30 36 -81 161 -96 237 -35 171 7 380
102 507 13 17 23 32 21 32 -2 0 -21 -14 -43 -32z"/>
<path d="M1770 1142 c97 -198 93 -434 -12 -629 l-42 -78 44 34 c56 43 270 259
270 273 0 6 11 23 25 40 14 16 25 35 25 41 -1 30 -139 205 -232 292 -128 122
-125 121 -78 27z"/>
<path d="M4542 1178 c-80 -64 -207 -220 -329 -403 -85 -127 -129 -205 -115
-205 5 0 16 15 25 34 54 114 255 389 380 519 46 48 83 87 82 87 -1 0 -20 -15
-43 -32z"/>
<path d="M3313 1102 c-188 -204 -403 -465 -391 -477 2 -2 42 44 90 103 137
169 216 263 312 366 49 53 87 99 84 101 -2 3 -45 -39 -95 -93z"/>
<path d="M2547 1165 c-49 -14 -83 -33 -37 -22 72 19 193 29 216 18 13 -6 24
-7 24 -2 0 24 -124 28 -203 6z"/>
<path d="M4022 1081 c-136 -122 -462 -474 -450 -487 3 -2 56 53 118 123 62 71
185 199 273 286 87 86 156 157 153 157 -3 0 -46 -35 -94 -79z"/>
<path d="M3615 1120 c-4 -6 15 -9 48 -7 30 1 53 5 50 10 -6 11 -91 9 -98 -3z"/>
<path d="M2768 1003 c3 -70 -28 -309 -44 -335 -12 -20 -86 -58 -143 -75 -34
-10 -61 -21 -61 -25 0 -10 98 21 151 47 59 31 68 42 79 109 6 31 14 82 20 114
12 69 13 242 2 242 -5 0 -7 -35 -4 -77z"/>
<path d="M4530 1051 l35 -6 -2 -92 c-2 -86 -7 -113 -69 -343 -5 -19 -4 -22 5
-14 35 33 94 370 77 438 -6 23 -11 26 -44 25 l-37 -2 35 -6z"/>
<path d="M4273 1043 c-13 -2 -23 -9 -23 -14 0 -11 -4 -12 50 5 43 14 26 19
-27 9z"/>
<path d="M3615 1030 c3 -5 21 -10 40 -10 19 0 37 5 40 10 4 6 -12 10 -40 10
-28 0 -44 -4 -40 -10z"/>
<path d="M2586 880 c-69 -71 -126 -134 -126 -139 0 -5 61 52 135 126 74 75
135 138 135 140 0 15 -35 -15 -144 -127z"/>
<path d="M3256 849 c-22 -111 -27 -149 -24 -184 2 -32 7 -41 25 -43 22 -3 96
41 122 72 20 24 2 19 -31 -9 -17 -14 -43 -32 -58 -40 -25 -13 -30 -13 -41 1
-10 12 -9 34 4 116 10 56 15 103 12 106 -2 2 -6 -6 -9 -19z"/>
</g>
</svg>
